# xmcd
#
# Track frame offsets: 
#        150
#        19679
#        43438
#        63318
#        79771
#        101943
#        119041
#        131722
#
# Disc length: 1948 seconds
#
# Revision: 5
# Processed by: cddbd v1.5.1PL0 Copyright (c) Steve Scherf et al.
# Submitted via: ExactAudioCopy v0.95b2
#
DISCID=75079a08
DTITLE=John Coltrane - Ballads
DYEAR=1962
DGENRE=Jazz
TTITLE0=Say It (Over And Over Again)
TTITLE1=You Don't Know What Love Is
TTITLE2=Too Young To Go Steady
TTITLE3=All Over Nothing At All
TTITLE4=I Wish I Knew
TTITLE5=What's New
TTITLE6=It's Easy To Remember
TTITLE7=Nancy With The Laughing Face
EXTD=ID3G: 8
EXTT0=
EXTT1=
EXTT2=
EXTT3=
EXTT4=
EXTT5=
EXTT6=
EXTT7=
PLAYORDER=
